<svg width="783" height="525" viewBox="0 0 783 525" fill="none" xmlns="http://www.w3.org/2000/svg">
<g id="Frame">
<g id="Group">
<path id="Vector" d="M622 9.33093H9.07358V383.285H622V9.33093Z" fill="#E6E6E6"/>
<path id="Vector_2" d="M604.473 56.2343H26.6001V361.162H604.473V56.2343Z" fill="white"/>
<path id="Vector_3" d="M621.738 9H8.81189V33.8061H621.738V9Z" fill="black"/>
<path id="Vector_4" d="M28.1623 26.2798C30.8277 26.2798 32.9885 24.2214 32.9885 21.6822C32.9885 19.143 30.8277 17.0846 28.1623 17.0846C25.4968 17.0846 23.3361 19.143 23.3361 21.6822C23.3361 24.2214 25.4968 26.2798 28.1623 26.2798Z" fill="white"/>
<path id="Vector_5" d="M46.4813 26.2798C49.1467 26.2798 51.3075 24.2214 51.3075 21.6822C51.3075 19.143 49.1467 17.0846 46.4813 17.0846C43.8158 17.0846 41.6551 19.143 41.6551 21.6822C41.6551 24.2214 43.8158 26.2798 46.4813 26.2798Z" fill="white"/>
<path id="Vector_6" d="M64.8003 26.2798C67.4657 26.2798 69.6265 24.2214 69.6265 21.6822C69.6265 19.143 67.4657 17.0846 64.8003 17.0846C62.1349 17.0846 59.9741 19.143 59.9741 21.6822C59.9741 24.2214 62.1349 26.2798 64.8003 26.2798Z" fill="white"/>
<g id="line2">
<path id="Vector_7" d="M310.601 102.143H190.983C190.582 102.093 190.213 101.905 189.946 101.615C189.679 101.325 189.532 100.952 189.532 100.566C189.532 100.18 189.679 99.8074 189.946 99.5172C190.213 99.2271 190.582 99.0393 190.983 98.9888H310.601C311.003 99.0393 311.371 99.2271 311.638 99.5172C311.905 99.8074 312.053 100.18 312.053 100.566C312.053 100.952 311.905 101.325 311.638 101.615C311.371 101.905 311.003 102.093 310.601 102.143Z" fill="#CCCCCC"/>
<path id="Vector_8" d="M440.961 102.459H321.343C320.942 102.408 320.573 102.22 320.306 101.93C320.039 101.64 319.892 101.267 319.892 100.881C319.892 100.496 320.039 100.123 320.306 99.8327C320.573 99.5425 320.942 99.3547 321.343 99.3043H440.961C441.363 99.3547 441.732 99.5425 441.999 99.8327C442.266 100.123 442.413 100.496 442.413 100.881C442.413 101.267 442.266 101.64 441.999 101.93C441.732 102.22 441.363 102.408 440.961 102.459Z" fill="#CCCCCC"/>
</g>
<g id="line3">
<path id="Vector_9" d="M310.891 119.492H191.274C190.872 119.441 190.503 119.253 190.236 118.963C189.969 118.673 189.822 118.3 189.822 117.915C189.822 117.529 189.969 117.156 190.236 116.866C190.503 116.576 190.872 116.388 191.274 116.337H310.891C311.293 116.388 311.662 116.576 311.929 116.866C312.196 117.156 312.343 117.529 312.343 117.915C312.343 118.3 312.196 118.673 311.929 118.963C311.662 119.253 311.293 119.441 310.891 119.492Z" fill="#CCCCCC"/>
<path id="Vector_10" d="M365.474 119.492H331.215C330.813 119.441 330.445 119.253 330.177 118.963C329.91 118.673 329.763 118.3 329.763 117.915C329.763 117.529 329.91 117.156 330.177 116.866C330.445 116.576 330.813 116.388 331.215 116.337H365.474C365.876 116.388 366.245 116.576 366.512 116.866C366.779 117.156 366.926 117.529 366.926 117.915C366.926 118.3 366.779 118.673 366.512 118.963C366.245 119.253 365.876 119.441 365.474 119.492Z" fill="#CCCCCC"/>
</g>
<g id="line4">
<path id="Vector_11" d="M311.182 136.84H191.564C191.162 136.79 190.794 136.602 190.527 136.312C190.26 136.022 190.112 135.649 190.112 135.263C190.112 134.877 190.26 134.504 190.527 134.214C190.794 133.924 191.162 133.736 191.564 133.686H311.182C311.583 133.736 311.952 133.924 312.219 134.214C312.486 134.504 312.633 134.877 312.633 135.263C312.633 135.649 312.486 136.022 312.219 136.312C311.952 136.602 311.583 136.79 311.182 136.84Z" fill="#CCCCCC"/>
<path id="Vector_12" d="M365.474 136.525H331.215C330.813 136.474 330.445 136.286 330.177 135.996C329.91 135.706 329.763 135.333 329.763 134.948C329.763 134.562 329.91 134.189 330.177 133.899C330.445 133.609 330.813 133.421 331.215 133.37H365.474C365.876 133.421 366.245 133.609 366.512 133.899C366.779 134.189 366.926 134.562 366.926 134.948C366.926 135.333 366.779 135.706 366.512 135.996C366.245 136.286 365.876 136.474 365.474 136.525Z" fill="#CCCCCC"/>
<path id="Vector_13" d="M422.961 136.525H388.701C388.299 136.474 387.931 136.286 387.664 135.996C387.397 135.706 387.249 135.333 387.249 134.948C387.249 134.562 387.397 134.189 387.664 133.899C387.931 133.609 388.299 133.421 388.701 133.37H422.961C423.362 133.421 423.731 133.609 423.998 133.899C424.265 134.189 424.412 134.562 424.412 134.948C424.412 135.333 424.265 135.706 423.998 135.996C423.731 136.286 423.362 136.474 422.961 136.525Z" fill="#CCCCCC"/>
</g>
<g id="line1">
<path id="Vector_14" d="M440.961 84.7947H252.825C252.423 84.7442 252.054 84.5565 251.787 84.2663C251.52 83.9762 251.373 83.6034 251.373 83.2175C251.373 82.8316 251.52 82.4589 251.787 82.1687C252.054 81.8786 252.423 81.6908 252.825 81.6404H440.961C441.363 81.6908 441.732 81.8786 441.999 82.1687C442.266 82.4589 442.413 82.8316 442.413 83.2175C442.413 83.6034 442.266 83.9762 441.999 84.2663C441.732 84.5565 441.363 84.7442 440.961 84.7947Z" fill="#CCCCCC"/>
<path id="Vector_15" d="M224.372 84.7947H190.112C189.711 84.7442 189.342 84.5565 189.075 84.2663C188.808 83.9762 188.661 83.6034 188.661 83.2175C188.661 82.8316 188.808 82.4589 189.075 82.1687C189.342 81.8786 189.711 81.6908 190.112 81.6404H224.372C224.773 81.6908 225.142 81.8786 225.409 82.1687C225.676 82.4589 225.823 82.8316 225.823 83.2175C225.823 83.6034 225.676 83.9762 225.409 84.2663C225.142 84.5565 224.773 84.7442 224.372 84.7947Z" fill="#CCCCCC"/>
</g>
<path id="Vector_16" d="M310.166 283.71H190.548C190.146 283.66 189.777 283.472 189.51 283.182C189.243 282.892 189.096 282.519 189.096 282.133C189.096 281.747 189.243 281.375 189.51 281.084C189.777 280.794 190.146 280.607 190.548 280.556H310.166C310.567 280.607 310.936 280.794 311.203 281.084C311.47 281.375 311.617 281.747 311.617 282.133C311.617 282.519 311.47 282.892 311.203 283.182C310.936 283.472 310.567 283.66 310.166 283.71Z" fill="#CCCCCC"/>
<path id="Vector_17" d="M309.585 318.407H189.967C189.565 318.357 189.197 318.169 188.93 317.879C188.663 317.589 188.515 317.216 188.515 316.83C188.515 316.444 188.663 316.072 188.93 315.781C189.197 315.491 189.565 315.304 189.967 315.253H309.585C309.987 315.304 310.355 315.491 310.622 315.781C310.889 316.072 311.037 316.444 311.037 316.83C311.037 317.216 310.889 317.589 310.622 317.879C310.355 318.169 309.987 318.357 309.585 318.407Z" fill="#CCCCCC"/>
<path id="Vector_18" d="M309.875 335.756H190.257C189.856 335.706 189.487 335.518 189.22 335.228C188.953 334.937 188.806 334.565 188.806 334.179C188.806 333.793 188.953 333.42 189.22 333.13C189.487 332.84 189.856 332.652 190.257 332.602H309.875C310.277 332.652 310.646 332.84 310.913 333.13C311.18 333.42 311.327 333.793 311.327 334.179C311.327 334.565 311.18 334.937 310.913 335.228C310.646 335.518 310.277 335.706 309.875 335.756Z" fill="#CCCCCC"/>
<path id="Vector_19" d="M360.974 318.723H326.715C326.313 318.672 325.944 318.485 325.677 318.195C325.41 317.904 325.263 317.532 325.263 317.146C325.263 316.76 325.41 316.387 325.677 316.097C325.944 315.807 326.313 315.619 326.715 315.569H360.974C361.376 315.619 361.744 315.807 362.012 316.097C362.279 316.387 362.426 316.76 362.426 317.146C362.426 317.532 362.279 317.904 362.012 318.195C361.744 318.485 361.376 318.672 360.974 318.723Z" fill="#CCCCCC"/>
<path id="Vector_20" d="M360.974 335.756H326.715C326.313 335.706 325.944 335.518 325.677 335.228C325.41 334.937 325.263 334.565 325.263 334.179C325.263 333.793 325.41 333.42 325.677 333.13C325.944 332.84 326.313 332.652 326.715 332.602H360.974C361.376 332.652 361.744 332.84 362.012 333.13C362.279 333.42 362.426 333.793 362.426 334.179C362.426 334.565 362.279 334.937 362.012 335.228C361.744 335.518 361.376 335.706 360.974 335.756Z" fill="#CCCCCC"/>
<path id="Vector_21" d="M418.46 318.723H384.201C383.799 318.672 383.431 318.485 383.164 318.195C382.896 317.904 382.749 317.532 382.749 317.146C382.749 316.76 382.896 316.387 383.164 316.097C383.431 315.807 383.799 315.619 384.201 315.569H418.46C418.862 315.619 419.231 315.807 419.498 316.097C419.765 316.387 419.912 316.76 419.912 317.146C419.912 317.532 419.765 317.904 419.498 318.195C419.231 318.485 418.862 318.672 418.46 318.723Z" fill="#CCCCCC"/>
<path id="Vector_22" d="M441.106 301.059H252.97C252.568 301.008 252.199 300.821 251.932 300.531C251.665 300.24 251.518 299.868 251.518 299.482C251.518 299.096 251.665 298.723 251.932 298.433C252.199 298.143 252.568 297.955 252.97 297.905H441.106C441.508 297.955 441.877 298.143 442.144 298.433C442.411 298.723 442.558 299.096 442.558 299.482C442.558 299.868 442.411 300.24 442.144 300.531C441.877 300.821 441.508 301.008 441.106 301.059Z" fill="#CCCCCC"/>
<path id="Vector_23" d="M224.517 301.059H190.257C189.856 301.008 189.487 300.821 189.22 300.531C188.953 300.24 188.806 299.868 188.806 299.482C188.806 299.096 188.953 298.723 189.22 298.433C189.487 298.143 189.856 297.955 190.257 297.905H224.517C224.918 297.955 225.287 298.143 225.554 298.433C225.821 298.723 225.969 299.096 225.969 299.482C225.969 299.868 225.821 300.24 225.554 300.531C225.287 300.821 224.918 301.008 224.517 301.059Z" fill="#CCCCCC"/>
<path id="Vector_24" d="M281.278 164.863L234.824 208.564L281.278 252.264L291.73 242.307L256.599 208.84L292.019 175.097L281.278 164.863Z" fill="#E6E6E6"/>
<path id="Vector_25" d="M349.797 164.863L396.25 208.564L349.797 252.264L339.345 242.307L374.475 208.84L339.054 175.097L349.797 164.863Z" fill="#E6E6E6"/>
<path id="Vector_26" d="M281.278 164.863L234.824 208.564L281.278 252.264L291.73 242.307L256.599 208.84L292.019 175.097L281.278 164.863Z" fill="#0F52BA"/>
<path id="Vector_27" d="M349.797 164.863L396.25 208.564L349.797 252.264L339.345 242.307L374.475 208.84L339.054 175.097L349.797 164.863Z" fill="#0F52BA"/>
<path id="Vector_28" d="M725.35 522.889C727.843 496.037 734.73 469.775 745.735 445.155C748.802 438.303 752.177 431.602 755.862 425.052C756.809 423.367 754.218 421.852 753.272 423.538C739.872 447.395 730.485 473.291 725.486 500.193C724.095 507.705 723.05 515.271 722.35 522.889C722.172 524.811 725.173 524.799 725.35 522.889Z" fill="#2F2E41" fill-opacity="0.69"/>
<path id="Vector_29" d="M727.293 523.394C728.911 505.973 733.378 488.936 740.518 472.964C742.508 468.519 744.698 464.172 747.088 459.922C747.208 459.7 747.237 459.44 747.169 459.197C747.1 458.954 746.94 458.747 746.722 458.619C746.504 458.492 746.245 458.454 746 458.514C745.755 458.574 745.542 458.726 745.408 458.94C736.715 474.417 730.625 491.218 727.381 508.67C726.479 513.544 725.801 518.452 725.347 523.394C725.232 524.641 727.179 524.633 727.293 523.394Z" fill="#2F2E41" fill-opacity="0.69"/>
<path id="Vector_30" d="M724.837 522.23C715.398 507.5 708.442 491.319 704.247 474.333C703.081 469.605 702.135 464.83 701.406 460.009C701.364 459.76 701.226 459.538 701.023 459.388C700.82 459.238 700.566 459.173 700.316 459.207C700.066 459.24 699.838 459.37 699.682 459.568C699.525 459.766 699.451 460.017 699.476 460.268C702.142 477.818 707.673 494.811 715.85 510.567C718.136 514.964 720.62 519.251 723.302 523.428C723.978 524.482 725.508 523.278 724.837 522.231V522.23Z" fill="#2F2E41" fill-opacity="0.69"/>
<g id="plant">
<path id="Vector_31" d="M763.128 429.863C773.621 429.863 782.128 421.357 782.128 410.863C782.128 400.37 773.621 391.863 763.128 391.863C752.635 391.863 744.128 400.37 744.128 410.863C744.128 421.357 752.635 429.863 763.128 429.863Z" fill="#C9EEFA"/>
<path id="Vector_32" d="M751.802 463.044C758.609 463.044 764.128 457.525 764.128 450.717C764.128 443.91 758.609 438.391 751.802 438.391C744.994 438.391 739.476 443.91 739.476 450.717C739.476 457.525 744.994 463.044 751.802 463.044Z" fill="#C9EEFA"/>
<path id="Vector_33" d="M699.461 462.178C706.269 462.178 711.787 456.66 711.787 449.852C711.787 443.045 706.269 437.526 699.461 437.526C692.653 437.526 687.135 443.045 687.135 449.852C687.135 456.66 692.653 462.178 699.461 462.178Z" fill="#C9EEFA"/>
</g>
<path id="Vector_34" d="M626.228 344.491C627.038 343.264 627.568 341.874 627.783 340.42C627.997 338.965 627.89 337.482 627.469 336.073C627.047 334.665 626.323 333.366 625.345 332.268C624.367 331.17 623.161 330.3 621.811 329.718L624.402 294.077L608.199 303.15L608.223 335.604C607.396 337.937 607.455 340.492 608.386 342.785C609.318 345.078 611.059 346.95 613.278 348.045C615.498 349.141 618.042 349.384 620.429 348.729C622.815 348.074 624.879 346.566 626.228 344.491Z" fill="#FFB8B8"/>
<path id="Vector_35" d="M566.53 512.201H554.271L548.438 464.913H566.532L566.53 512.201Z" fill="#FFB8B8"/>
<path id="Vector_36" d="M545.513 508.698H569.157V523.584H530.627C530.627 521.63 531.012 519.694 531.76 517.888C532.508 516.081 533.604 514.44 534.987 513.058C536.369 511.676 538.01 510.579 539.816 509.831C541.623 509.083 543.558 508.698 545.513 508.698Z" fill="#2F2E41"/>
<path id="Vector_37" d="M668.533 497.55L657.408 502.7L632.247 462.239L648.668 454.637L668.533 497.55Z" fill="#FFB8B8"/>
<path id="Vector_38" d="M647.99 503.2L669.446 493.267L675.7 506.777L640.734 522.964C639.913 521.19 639.449 519.271 639.369 517.318C639.289 515.364 639.595 513.414 640.269 511.579C640.942 509.744 641.971 508.059 643.296 506.622C644.621 505.184 646.215 504.021 647.99 503.2Z" fill="#2F2E41"/>
<path id="Vector_39" d="M537.42 357.874L550.064 502.163L567.064 500.163L579.628 368.363L649.064 494.163L667.064 489.163C667.064 489.163 609.128 315.863 604.628 301.363C599.695 285.468 560.628 279.363 560.628 279.363L559.128 277.863C542.341 300.461 535.618 329.782 537.42 357.874Z" fill="#2F2E41"/>
<path id="Vector_40" d="M604.777 185.059C618.342 185.059 629.338 174.062 629.338 160.498C629.338 146.933 618.342 135.937 604.777 135.937C591.213 135.937 580.216 146.933 580.216 160.498C580.216 174.062 591.213 185.059 604.777 185.059Z" fill="#FFB8B8"/>
<path id="Vector_41" d="M522.644 324.68C524.026 324.179 525.281 323.381 526.322 322.343C527.362 321.304 528.162 320.05 528.665 318.668C529.168 317.287 529.362 315.812 529.234 314.348C529.105 312.883 528.657 311.465 527.921 310.192L551.28 283.149L532.866 280.752L513.507 306.8C511.451 308.178 509.972 310.263 509.35 312.659C508.728 315.054 509.007 317.595 510.133 319.799C511.26 322.003 513.155 323.717 515.461 324.617C517.767 325.517 520.323 325.539 522.644 324.68Z" fill="#FFB8B8"/>
<g id="shirt">
<path id="Vector_42" d="M622.198 205.945L626.628 319.363L608.628 318.363L604.628 199.363L608.424 197.577C609.868 196.897 611.458 196.586 613.052 196.67C614.646 196.755 616.194 197.233 617.558 198.062C618.922 198.891 620.06 200.044 620.87 201.42C621.679 202.795 622.135 204.35 622.198 205.945Z" fill="#C9EEFA"/>
<path id="Vector_43" d="M622.064 198.163L603.128 296.863C603.128 296.863 577.188 291.683 567.948 285.443C564.288 282.963 560.968 280.403 558.168 278.083C555.019 275.497 552.001 272.753 549.128 269.863C549.128 269.863 555.768 237.253 558.138 228.523C560.89 218.411 570.331 206.632 577.685 198.606C580.351 195.698 583.758 193.57 587.54 192.451C591.323 191.331 595.339 191.261 599.159 192.25L622.064 198.163Z" fill="#C9EEFA"/>
<path id="Vector_44" opacity="0.2" d="M567.948 286.443C564.288 283.963 560.968 281.403 558.168 279.083C559.178 264.143 581.188 232.863 590.108 232.863C590.108 232.863 592.218 281.073 567.948 286.443Z" fill="black"/>
<path id="Vector_45" d="M587.95 193.388C586.933 193.409 585.92 193.525 584.924 193.735C582.908 194.195 581.038 195.149 579.482 196.51C577.925 197.872 576.731 199.598 576.006 201.534L547.128 261.863L516.128 294.863L531.628 307.363L580.628 263.363L600.204 210.082C600.829 208.158 600.988 206.112 600.666 204.115C600.345 202.117 599.553 200.225 598.355 198.594C597.158 196.963 595.59 195.641 593.781 194.735C591.972 193.83 589.973 193.368 587.95 193.388Z" fill="#C9EEFA"/>
</g>
<path id="Vector_46" d="M606.231 184.833C609.727 179.6 612.485 172.345 608.637 167.367C604.838 162.453 597.345 163.177 591.526 161.002C583.422 157.974 578.722 148.453 580.188 139.927C581.654 131.4 588.498 124.332 596.652 121.44C604.806 118.548 614 119.489 621.985 122.819C631.814 126.919 640.246 134.849 643.782 144.895C647.318 154.941 645.428 167.003 638.093 174.725C630.229 183.003 617.887 185.209 606.47 185.076" fill="#2F2E41"/>
<path id="Vector_47" d="M644.8 155.873C645.8 161.464 651.934 164.64 657.571 165.337C663.207 166.035 669.038 165.14 674.526 166.606C684.2 169.191 690.581 178.495 694.093 187.872C697.605 197.249 699.162 207.37 703.725 216.284C708.288 225.197 717.136 233.055 727.114 232.221C725.16 237.143 721.734 241.341 717.305 244.244C712.876 247.147 707.659 248.612 702.366 248.441C697.073 248.269 691.962 246.469 687.73 243.285C683.498 240.102 680.352 235.69 678.72 230.652C675.054 219.335 679.262 205.839 672.852 195.818C669.304 190.273 663.179 187.012 657.272 184.105C651.366 181.199 645.166 178.216 641.206 172.958C637.246 167.7 636.455 159.395 641.335 154.977" fill="#2F2E41"/>
<path id="Vector_48" d="M764.403 524.111H444.109C443.952 524.111 443.797 524.081 443.652 524.021C443.508 523.961 443.376 523.874 443.265 523.763C443.154 523.653 443.066 523.521 443.006 523.376C442.946 523.232 442.915 523.077 442.915 522.92C442.915 522.763 442.946 522.608 443.006 522.464C443.066 522.319 443.154 522.187 443.265 522.077C443.376 521.966 443.508 521.879 443.652 521.819C443.797 521.759 443.952 521.729 444.109 521.729H764.403C764.56 521.729 764.715 521.759 764.86 521.819C765.005 521.879 765.136 521.966 765.247 522.077C765.358 522.187 765.446 522.319 765.506 522.464C765.566 522.608 765.597 522.763 765.597 522.92C765.597 523.077 765.566 523.232 765.506 523.376C765.446 523.521 765.358 523.653 765.247 523.763C765.136 523.874 765.005 523.961 764.86 524.021C764.715 524.081 764.56 524.111 764.403 524.111Z" fill="#3F3D56"/>
<g id="leaf">
<path id="Vector_49" d="M685.352 74.5878C699.772 93.8988 729.704 95.9313 729.704 95.9313C729.704 95.9313 736.257 66.6545 721.838 47.3435C707.418 28.0325 677.486 26 677.486 26C677.486 26 670.932 55.2768 685.352 74.5878Z" fill="#C9EEFA"/>
<path id="Vector_50" d="M758.809 81.8473C749.293 94.5901 729.542 95.9312 729.542 95.9312C729.542 95.9312 725.218 76.6124 734.733 63.8697C744.248 51.1269 763.999 49.7856 763.999 49.7856C763.999 49.7856 768.324 69.1045 758.809 81.8473Z" fill="#C9EEFA"/>
</g>
</g>
</g>
</svg>
