<?xml version="1.0" standalone="no"?><svg height="100%" width="100%" id="bg-svg" viewBox="0 0 1440 600" xmlns="http://www.w3.org/2000/svg" class="transition duration-300 ease-in-out delay-150"><path d="M 0,600 C 0,600 0,200 0,200 C 121.81818181818178,170.3732057416268 243.63636363636357,140.74641148325358 340,140 C 436.36363636363643,139.25358851674642 507.27272727272737,167.38755980861245 595,182 C 682.7272727272726,196.61244019138755 787.2727272727271,197.70334928229664 894,200 C 1000.7272727272729,202.29665071770336 1109.6363636363637,205.79904306220095 1201,206 C 1292.3636363636363,206.20095693779905 1366.181818181818,203.10047846889952 1440,200 C 1440,200 1440,600 1440,600 Z" stroke="none" stroke-width="0" fill="#cf187988" class="transition-all duration-300 ease-in-out delay-150"></path><path d="M 0,600 C 0,600 0,400 0,400 C 116.26794258373207,378.066985645933 232.53588516746413,356.13397129186603 334,372 C 435.46411483253587,387.86602870813397 522.1244019138755,441.53110047846883 612,442 C 701.8755980861245,442.46889952153117 794.9665071770336,389.7416267942584 878,358 C 961.0334928229664,326.2583732057416 1034.0095693779904,315.5023923444976 1126,326 C 1217.9904306220096,336.4976076555024 1328.9952153110048,368.2488038277512 1440,400 C 1440,400 1440,600 1440,600 Z" stroke="none" stroke-width="0" fill="#cf1879ff" class="transition-all duration-300 ease-in-out delay-150"></path></svg>